<svg xmlns="http://www.w3.org/2000/svg" viewBox="0 0 108 108" width="108" height="108">
  <rect width="108" height="108" fill="#06121A"/>
  <circle cx="54" cy="54" r="45" fill="#3D6FB8" fill-opacity="0.72"/>
  <circle cx="54" cy="54" r="23" fill="#5EE6C7"/>
  <path fill="#001F1A" d="M61.8,41.8c-1.6,-1.5 -4,-2.3 -7.1,-2.3c-5.5,0 -9.4,2.8 -9.4,7c0,3.7 2.9,5.8 7.5,7l2.9,0.7c2.5,0.6 3.7,1.5 3.7,3c0,1.8 -1.8,3 -4.8,3c-2.9,0 -5.2,-1 -7,-2.9l-4.2,4.4c2.4,2.7 6.1,4.2 11,4.2c6.4,0 10.6,-3.1 10.6,-7.7c0,-3.6 -2.4,-5.8 -7.7,-7l-3.1,-0.8c-2.3,-0.6 -3.4,-1.3 -3.4,-2.8c0,-1.7 1.6,-2.8 4,-2.8c2.3,0 4,0.6 5.3,1.9l4.2,-4.4z"/>
</svg>
